<svg width="231" height="34" viewBox="0 0 231 34" fill="none" xmlns="http://www.w3.org/2000/svg">
<g clip-path="url(#clip0_666_462)">
<path d="M11.3635 29.1558L2.45436 10.7903H0L11.2234 34L22.3936 10.7903H20.2292L11.3635 29.1558Z" fill="white"/>
<path d="M33.2402 10.8383H31.0033V32.9268H33.2402V10.8383Z" fill="white"/>
<path d="M32.1241 3.02344C30.9984 3.02344 30.38 3.60321 30.38 4.65254C30.38 5.70186 30.9984 6.28642 32.1241 6.28642C33.2499 6.28642 33.8683 5.70665 33.8683 4.65254C33.8683 3.59842 33.245 3.02344 32.1241 3.02344Z" fill="white"/>
<path d="M47.3383 29.3763C46.7307 28.7819 46.2533 28.0696 45.9357 27.2839C45.6181 26.4983 45.4674 25.6561 45.4927 24.8101V12.865H52.1263V10.8383H45.4927V2.14661H43.2558V24.8101C43.2219 25.9358 43.4282 27.056 43.8612 28.0972C44.2941 29.1384 44.944 30.0772 45.7681 30.8521C47.3913 32.4024 49.5687 33.2503 51.8219 33.2095H52.1746V31.1827H51.8219C50.9903 31.1971 50.1645 31.0445 49.3939 30.734C48.6234 30.4236 47.9242 29.9618 47.3383 29.3763Z" fill="white"/>
<path d="M80.1581 15.0834C79.3071 13.7721 78.1462 12.6866 76.7762 11.9211C74.9413 10.8384 72.8477 10.2627 70.7127 10.2536C69.1654 10.235 67.6304 10.5277 66.2004 11.1141C64.7705 11.7005 63.4752 12.5683 62.393 13.6651C61.2964 14.7321 60.4252 16.0052 59.8305 17.4099C59.2359 18.8147 58.9296 20.323 58.9296 21.8465C58.9296 23.37 59.2359 24.8783 59.8305 26.2831C60.4252 27.6878 61.2964 28.9609 62.393 30.0279C63.4752 31.1247 64.7705 31.9926 66.2004 32.5789C67.6304 33.1653 69.1654 33.458 70.7127 33.4394C72.8046 33.441 74.8581 32.8814 76.6554 31.8199C78.0639 31.0085 79.2644 29.8852 80.163 28.5377V32.9171H82.3999V10.7711H80.163L80.1581 15.0834ZM77.4477 15.1313C79.2412 16.9169 80.2502 19.3332 80.2547 21.8535C80.2593 24.3739 79.259 26.7937 77.4719 28.5857C76.6145 29.4905 75.5771 30.209 74.4253 30.6956C73.2734 31.1822 72.0323 31.4264 70.7804 31.4126C68.2425 31.3817 65.817 30.3701 64.0197 28.593C62.2223 26.8159 61.195 24.4135 61.1562 21.8968C61.1512 20.6405 61.4014 19.3961 61.892 18.2379C62.3826 17.0796 63.1034 16.0312 64.0115 15.1553C64.878 14.2393 65.9263 13.511 67.0903 13.0162C68.2544 12.5215 69.5091 12.271 70.7755 12.2804C72.0265 12.2745 73.2653 12.5256 74.4136 13.0179C75.5619 13.5102 76.595 14.233 77.4477 15.1409V15.1313Z" fill="white"/>
<path d="M115.345 10.2632C113.515 10.21 111.711 10.7114 110.176 11.7007C109.04 12.4493 108.141 13.5028 107.586 14.7384C106.998 13.5568 106.139 12.528 105.079 11.7342C102.484 9.78889 99.4838 9.8943 96.841 11.3509C95.9711 11.8183 95.1818 12.42 94.5026 13.1333V10.7711H92.2656V32.9076H94.5026V18.2841C94.5493 16.7008 95.2076 15.1958 96.3415 14.0802C97.4754 12.9646 98.9981 12.3238 100.595 12.29C101.376 12.2778 102.152 12.4299 102.869 12.7363C103.587 13.0427 104.231 13.4964 104.76 14.0676C105.315 14.6216 105.755 15.2797 106.052 16.0036C106.349 16.7274 106.497 17.5027 106.489 18.2841V32.9267H108.736V18.2841C108.74 17.4954 108.91 16.7161 109.234 15.996C109.559 15.2758 110.031 14.6305 110.62 14.1012C111.185 13.5309 111.857 13.0773 112.599 12.7664C113.342 12.4555 114.139 12.2936 114.944 12.29C115.719 12.2814 116.487 12.4309 117.201 12.7293C117.915 13.0277 118.56 13.4686 119.095 14.0245C119.663 14.5979 120.109 15.2792 120.405 16.0277C120.702 16.7761 120.842 17.5762 120.819 18.3799V32.9267H123.056V18.3799C123.056 15.9076 122.274 13.9191 120.737 12.4577C120.029 11.757 119.188 11.2023 118.263 10.8257C117.337 10.449 116.346 10.2579 115.345 10.2632Z" fill="white"/>
<path d="M135.777 10.8383H133.541V32.9268H135.777V10.8383Z" fill="white"/>
<path d="M134.657 3.02344C133.536 3.02344 132.917 3.60321 132.917 4.65254C132.917 5.70186 133.536 6.28642 134.657 6.28642C135.777 6.28642 136.401 5.70665 136.401 4.65254C136.401 3.59842 135.792 3.02344 134.657 3.02344Z" fill="white"/>
<path d="M156.524 10.2632C152.943 10.2632 150.243 11.5808 148.508 14.1826V10.7711H146.271V32.9075H148.508V20.0952C148.507 19.0669 148.721 18.0496 149.136 17.1076C149.552 16.1657 150.161 15.3197 150.924 14.6234C151.653 13.8844 152.523 13.2973 153.484 12.8966C154.445 12.4959 155.476 12.2896 156.519 12.29C157.532 12.2774 158.536 12.477 159.466 12.8758C160.396 13.2746 161.231 13.8636 161.915 14.6042C162.632 15.3276 163.199 16.1841 163.582 17.1246C163.965 18.0651 164.157 19.0713 164.148 20.0856V32.9171H166.384V20.0952C166.407 18.805 166.167 17.5236 165.678 16.3275C165.19 15.1314 164.464 14.045 163.544 13.1333C162.636 12.2015 161.543 11.4657 160.335 10.9719C159.128 10.478 157.83 10.2368 156.524 10.2632Z" fill="white"/>
<path d="M177.999 3.02344C176.874 3.02344 176.255 3.60321 176.255 4.65254C176.255 5.70186 176.874 6.28642 177.999 6.28642C179.125 6.28642 179.743 5.70665 179.743 4.65254C179.743 3.59842 179.125 3.02344 177.999 3.02344Z" fill="white"/>
<path d="M179.115 10.8383H176.878V32.9268H179.115V10.8383Z" fill="white"/>
<path d="M198.412 20.2295C197.383 19.5874 196.349 18.9837 195.344 18.4327C194.433 17.9416 193.586 17.3414 192.822 16.6455C192.534 16.412 192.298 16.1204 192.132 15.79C191.965 15.4596 191.871 15.098 191.856 14.7289C191.851 14.3947 191.924 14.0639 192.069 13.7622C192.214 13.4606 192.427 13.1961 192.692 12.9896C193.241 12.5129 193.948 12.2536 194.677 12.2613C196.127 12.2613 197.315 12.9609 198.277 14.3983L198.919 15.3566V12.1271L198.828 12.0265C198.337 11.4636 197.729 11.0128 197.046 10.7051C196.363 10.3975 195.621 10.2402 194.871 10.2441C193.505 10.1902 192.167 10.6371 191.112 11.4995C190.644 11.8727 190.266 12.3455 190.007 12.8829C189.747 13.4203 189.613 14.0086 189.614 14.6043C189.6 15.7683 190.014 16.8976 190.778 17.781C191.539 18.6664 192.445 19.4167 193.46 19.9995L196.513 21.7867C197.471 22.3455 198.325 23.0617 199.04 23.9045C199.719 24.7358 200.074 25.7818 200.04 26.8512C200.024 27.4594 199.874 28.0567 199.599 28.6007C199.324 29.1447 198.932 29.6221 198.451 29.9992C197.36 30.962 195.939 31.476 194.479 31.4366C191.914 31.4366 190.102 30.1957 188.938 27.637L188.266 26.1756V30.1573L188.31 30.234C188.907 31.2609 189.805 32.0832 190.885 32.5914C192.044 33.1723 193.326 33.4712 194.624 33.4634C196.64 33.5029 198.589 32.7522 200.05 31.3743C200.766 30.7413 201.338 29.9636 201.726 29.0933C202.115 28.2231 202.311 27.2806 202.301 26.329C202.318 25.0425 201.915 23.7853 201.152 22.745C200.412 21.7378 199.481 20.8834 198.412 20.2295Z" fill="white"/>
<path d="M226.425 30.2051C224.904 31.0596 223.181 31.4963 221.434 31.4701C219.699 31.4701 217.854 30.7418 215.96 29.3092L231 14.6042L230.778 14.3551C228.362 11.6911 225.395 10.3351 222.013 10.3351C220.428 10.3006 218.852 10.5851 217.381 11.1714C215.909 11.7578 214.573 12.6338 213.452 13.7466C212.354 14.7837 211.48 16.032 210.885 17.4152C210.289 18.7984 209.984 20.2874 209.988 21.7914C209.985 23.3166 210.292 24.8268 210.891 26.2315C211.491 27.6361 212.37 28.9062 213.476 29.9656C214.528 31.0794 215.801 31.9662 217.214 32.5705C218.627 33.1748 220.151 33.4836 221.69 33.4777H222.125C223.74 33.4883 225.339 33.1511 226.81 32.4893C228.282 31.8275 229.591 30.857 230.647 29.6446L230.739 29.5439V25.8449L230.096 26.8032C229.153 28.2025 227.896 29.3667 226.425 30.2051ZM221.593 12.3379C223.889 12.3284 226.113 13.1244 227.874 14.5851L214.443 27.8286C212.986 26.1025 212.2 23.9172 212.225 21.6668C212.313 19.2255 213.329 16.9074 215.068 15.1774C216.807 13.4473 219.141 12.433 221.603 12.3379H221.593Z" fill="white"/>
<path d="M65.0986 10.5939C60.388 13.4687 56.6823 8.8354 56.5132 0C60.1271 4.67165 67.7704 3.79002 66.3065 9.5062C64.4294 9.34139 62.6821 8.48694 61.4074 7.11048C62.2143 8.89769 63.3738 10.1674 65.0986 10.5939Z" fill="#92C84A"/>
<path d="M68.0651 9.81291C70.4808 11.2743 72.3699 8.91691 72.4569 4.3938C70.6113 6.78951 66.6978 6.33433 67.4467 9.2571C68.4062 9.17143 69.2995 8.73613 69.9542 8.03529C69.8009 8.45717 69.5503 8.83765 69.2223 9.14631C68.8943 9.45497 68.498 9.68325 68.0651 9.81291Z" fill="#FF931E"/>
<path d="M76.9501 19.4388L72.0511 20.7421C71.9996 20.7556 71.9454 20.7554 71.894 20.7417C71.8426 20.7279 71.7957 20.701 71.7581 20.6637C71.7204 20.6264 71.6933 20.5799 71.6795 20.5289C71.6656 20.4779 71.6654 20.4242 71.679 20.3732L72.9835 15.5626C73.0076 15.4701 73.052 15.3841 73.1136 15.3107C73.1752 15.2372 73.2524 15.1783 73.3397 15.138C73.427 15.0976 73.5222 15.077 73.6185 15.0775C73.7148 15.078 73.8098 15.0997 73.8967 15.1409C75.3983 15.8466 76.6217 17.0262 77.3753 18.4949C77.4223 18.583 77.4484 18.6805 77.4517 18.78C77.4551 18.8796 77.4355 18.9786 77.3945 19.0696C77.3536 19.1605 77.2923 19.2411 77.2153 19.305C77.1383 19.369 77.0476 19.4148 76.9501 19.4388Z" fill="#FF931E"/>
<path d="M69.8673 20.263L66.3258 16.7557C66.2586 16.6877 66.2071 16.606 66.1749 16.5163C66.1426 16.4267 66.1305 16.3311 66.1392 16.2363C66.148 16.1415 66.1774 16.0497 66.2254 15.9673C66.2735 15.8849 66.3391 15.8138 66.4176 15.759C67.7874 14.8213 69.4324 14.3612 71.0945 14.451C71.1917 14.4569 71.2864 14.4842 71.3716 14.5309C71.4569 14.5776 71.5306 14.6425 71.5875 14.7209C71.6444 14.7993 71.683 14.8893 71.7005 14.9843C71.718 15.0793 71.714 15.177 71.6887 15.2703L70.3746 20.1288C70.3617 20.1805 70.3351 20.2278 70.2975 20.2658C70.2599 20.3037 70.2128 20.331 70.1609 20.3447C70.1091 20.3584 70.0545 20.3581 70.0028 20.3437C69.9512 20.3293 69.9043 20.3014 69.8673 20.263Z" fill="#FF931E"/>
<path d="M68.8671 21.7914L64.0357 23.0755C63.9427 23.1004 63.8454 23.1048 63.7506 23.0882C63.6557 23.0717 63.5657 23.0347 63.4869 22.9798C63.4081 22.925 63.3424 22.8536 63.2944 22.7708C63.2465 22.688 63.2175 22.5957 63.2095 22.5006C63.0737 20.8545 63.4953 19.2105 64.4077 17.8289C64.461 17.7481 64.5318 17.6802 64.615 17.6301C64.6981 17.58 64.7915 17.549 64.8884 17.5394C64.9852 17.5297 65.083 17.5417 65.1745 17.5744C65.2661 17.6071 65.3491 17.6596 65.4175 17.7283L69.0072 21.2835C69.0443 21.3218 69.0707 21.3689 69.0839 21.4204C69.0971 21.4718 69.0966 21.5257 69.0825 21.5769C69.0684 21.6281 69.0411 21.6748 69.0034 21.7124C68.9656 21.75 68.9187 21.7772 68.8671 21.7914Z" fill="#FF931E"/>
<path d="M68.3839 28.1689C68.3597 28.2607 68.3154 28.3461 68.2541 28.419C68.1928 28.492 68.1161 28.5506 68.0295 28.5909C67.9428 28.6311 67.8482 28.652 67.7525 28.6519C67.6568 28.6518 67.5622 28.6309 67.4756 28.5905C65.9714 27.8884 64.747 26.7079 63.997 25.2365C63.9517 25.1501 63.9265 25.0548 63.9232 24.9575C63.9199 24.8602 63.9387 24.7635 63.9781 24.6743C64.0175 24.5851 64.0765 24.5059 64.1508 24.4423C64.2252 24.3787 64.3129 24.3325 64.4077 24.307L69.3115 23.0037C69.3629 22.9917 69.4164 22.9929 69.4671 23.0071C69.5178 23.0214 69.564 23.0483 69.6013 23.0853C69.6386 23.1223 69.6657 23.1681 69.6801 23.2184C69.6945 23.2687 69.6957 23.3218 69.6836 23.3726L68.3839 28.1689Z" fill="#FF931E"/>
<path d="M74.9401 27.9868C73.5704 28.9246 71.9253 29.3847 70.2633 29.2949C70.1661 29.2889 70.0714 29.2616 69.9862 29.2149C69.9009 29.1683 69.8271 29.1034 69.7703 29.025C69.7134 28.9465 69.6748 28.8566 69.6573 28.7615C69.6398 28.6665 69.6438 28.5688 69.6691 28.4755L70.9832 23.617C70.9961 23.5653 71.0227 23.5181 71.0603 23.4801C71.0978 23.4421 71.145 23.4148 71.1969 23.4011C71.2487 23.3874 71.3033 23.3878 71.355 23.4022C71.4066 23.4165 71.4534 23.4444 71.4905 23.4828L75.0319 26.9902C75.1 27.0578 75.1522 27.1393 75.1849 27.2291C75.2176 27.3189 75.23 27.4147 75.2212 27.5098C75.2125 27.6049 75.1828 27.6969 75.1342 27.7793C75.0856 27.8617 75.0194 27.9326 74.9401 27.9868Z" fill="#FF931E"/>
<path d="M75.9403 26.0414L72.3553 22.4814C72.318 22.4439 72.2913 22.3975 72.2776 22.3466C72.264 22.2958 72.2641 22.2423 72.2777 22.1914C72.2914 22.1406 72.3182 22.0941 72.3556 22.0568C72.3929 22.0194 72.4395 21.9923 72.4906 21.9783L77.322 20.6942C77.4146 20.6693 77.5116 20.6648 77.6061 20.6811C77.7006 20.6974 77.7904 20.7339 77.8692 20.7883C77.9479 20.8426 78.0137 20.9134 78.0619 20.9957C78.1101 21.0779 78.1396 21.1696 78.1482 21.2643C78.2862 22.9114 77.8663 24.5571 76.9549 25.9408C76.9011 26.0217 76.8298 26.0896 76.7462 26.1397C76.6627 26.1898 76.5689 26.2208 76.4717 26.2305C76.3745 26.2401 76.2764 26.2281 76.1844 26.1954C76.0925 26.1627 76.0091 26.1101 75.9403 26.0414Z" fill="#FF931E"/>
</g>
<defs>
<clipPath id="clip0_666_462">
<rect width="231" height="34" fill="white"/>
</clipPath>
</defs>
</svg>
