<svg width="101" height="131" viewBox="0 0 101 131" fill="none" xmlns="http://www.w3.org/2000/svg">
<g clip-path="url(#clip0_644_1311)">
<path d="M92.3665 59.1105C89.046 53.9748 84.5165 49.7235 79.1713 46.7254C72.0075 42.4994 63.8412 40.2517 55.5142 40.2139C49.4768 40.1377 43.4868 41.2826 37.9071 43.5792C32.3274 45.8759 27.2743 49.2764 23.0539 53.5747C18.7004 57.7008 15.2444 62.6728 12.9001 68.1828C10.5557 73.6928 9.373 79.6233 9.42514 85.607C9.36067 91.5821 10.5267 97.507 12.8512 103.016C15.1758 108.525 18.6096 113.502 22.9408 117.639C27.1605 121.938 32.2136 125.34 37.7934 127.636C43.3732 129.933 49.3636 131.077 55.4011 131C63.5629 131.007 71.5746 128.815 78.587 124.657C84.1194 121.494 88.8369 117.094 92.3665 111.803V128.955H101.094V42.2593H92.3665V59.1105ZM81.7727 59.2981C88.7793 66.2864 92.7224 75.7516 92.74 85.6251C92.7577 95.4987 88.8485 104.978 81.8669 111.991C78.5241 115.537 74.4769 118.353 69.9824 120.259C65.4878 122.165 60.6442 123.12 55.7592 123.062C50.836 123.096 45.9574 122.131 41.4204 120.228C36.8835 118.325 32.7831 115.522 29.3688 111.991C25.8181 108.595 23.0005 104.513 21.0882 99.9962C19.1759 95.4791 18.2092 90.6212 18.2471 85.7196C18.2258 80.8019 19.2015 75.9306 21.1157 71.3971C23.03 66.8637 25.8434 62.7613 29.3876 59.3357C32.7683 55.7482 36.8582 52.896 41.3999 50.9583C45.9416 49.0206 50.837 48.0395 55.7781 48.0765C60.6378 48.0771 65.4453 49.0737 69.9013 51.0043C74.3572 52.9349 78.3662 55.7581 81.6784 59.2981H81.7727Z" fill="#231F20"/>
<path d="M33.5159 41.5087C15.0803 52.6927 0.659761 34.6218 0 0C14.1 18.3149 43.9401 14.8433 38.2096 37.2302C30.8915 36.5837 24.0806 33.2372 19.1142 27.8476C22.2622 34.8658 26.7675 39.8386 33.5159 41.5087Z" fill="#92C84A"/>
<path d="M45.0711 38.4875C54.4963 44.117 61.8856 34.9596 62.2249 17.2452C55.0053 26.6279 39.7365 24.8452 42.6771 36.2919C46.4168 35.9625 49.8986 34.2562 52.4416 31.5068C51.8461 33.1626 50.8692 34.6564 49.5893 35.8687C48.3094 37.0809 46.762 37.9778 45.0711 38.4875Z" fill="#FF931E"/>
<path d="M79.7557 76.1304L60.6226 81.2346C60.4224 81.2817 60.2135 81.277 60.0156 81.2211C59.8178 81.1651 59.6376 81.0598 59.4921 80.915C59.3467 80.7702 59.2409 80.5908 59.1847 80.3939C59.1285 80.1969 59.1238 79.9889 59.1711 79.7897L64.223 61.0244C64.3152 60.6525 64.4903 60.306 64.7353 60.0106C64.9803 59.7153 65.289 59.4786 65.6385 59.3182C65.9879 59.1577 66.3692 59.0777 66.7539 59.084C67.1387 59.0902 67.5171 59.1826 67.8611 59.3543C73.72 62.1182 78.4931 66.7377 81.4333 72.49C81.6094 72.8332 81.7051 73.2117 81.7132 73.597C81.7213 73.9823 81.6417 74.3645 81.4803 74.7147C81.3188 75.065 81.0798 75.3744 80.7811 75.6196C80.4824 75.8648 80.1318 76.0394 79.7557 76.1304Z" fill="#FF931E"/>
<path d="M52.1211 79.3769L38.3038 65.6783C38.0385 65.4136 37.8348 65.0942 37.7072 64.7425C37.5796 64.3909 37.5312 64.0156 37.5653 63.6432C37.5995 63.2709 37.7154 62.9106 37.9049 62.5877C38.0944 62.2649 38.3529 61.9875 38.662 61.7751C44.0044 58.0999 50.4257 56.3037 56.9091 56.671C57.2873 56.6907 57.6563 56.7949 57.9886 56.9758C58.3209 57.1567 58.6081 57.4096 58.8289 57.7159C59.0497 58.0223 59.1985 58.3741 59.2643 58.7454C59.3301 59.1167 59.3111 59.498 59.2088 59.861L54.1004 78.8139C54.05 79.0155 53.9471 79.2004 53.802 79.3498C53.657 79.4992 53.475 79.608 53.2743 79.665C53.0736 79.7221 52.8613 79.7255 52.6589 79.675C52.4564 79.6244 52.2709 79.5215 52.1211 79.3769Z" fill="#FF931E"/>
<path d="M48.2192 85.2504L29.3689 90.2795C29.0087 90.3771 28.6314 90.3947 28.2636 90.3309C27.8959 90.2671 27.5467 90.1236 27.2409 89.9105C26.9351 89.6974 26.6801 89.42 26.4941 89.0978C26.308 88.7757 26.1954 88.4167 26.1643 88.0464C25.626 81.5958 27.2644 75.1507 30.8204 69.7316C31.0323 69.4177 31.3113 69.1542 31.6374 68.96C31.9634 68.7657 32.3285 68.6455 32.7065 68.6079C33.0846 68.5702 33.4664 68.6161 33.8246 68.7422C34.1828 68.8683 34.5087 69.0716 34.7789 69.3375L48.7659 83.28C48.9113 83.4279 49.0151 83.6112 49.0671 83.8115C49.1191 84.0119 49.1173 84.2223 49.0619 84.4218C49.0066 84.6212 48.8996 84.8027 48.7517 84.9481C48.6039 85.0936 48.4202 85.1978 48.2192 85.2504Z" fill="#FF931E"/>
<path d="M46.334 110.321C46.2393 110.683 46.0658 111.019 45.8258 111.307C45.5859 111.595 45.2853 111.827 44.9454 111.986C44.6055 112.145 44.2346 112.228 43.8589 112.229C43.4832 112.23 43.1119 112.149 42.7713 111.991C36.919 109.218 32.1486 104.601 29.1991 98.8552C29.0261 98.5152 28.9313 98.1411 28.9215 97.7601C28.9117 97.3791 28.9871 97.0007 29.1422 96.6522C29.2974 96.3038 29.5284 95.994 29.8186 95.7454C30.1089 95.4968 30.451 95.3156 30.8202 95.2148L49.9344 90.0731C50.1359 90.014 50.3497 90.01 50.5533 90.0616C50.7569 90.1132 50.9427 90.2185 51.0913 90.3664C51.2398 90.5143 51.3456 90.6993 51.3974 90.9019C51.4493 91.1046 51.4453 91.3174 51.3859 91.518L46.334 110.321Z" fill="#FF931E"/>
<path d="M71.914 109.608C66.572 113.3 60.1408 115.104 53.6481 114.731C53.2704 114.705 52.9032 114.596 52.5728 114.412C52.2423 114.228 51.9569 113.974 51.7371 113.667C51.5172 113.36 51.3683 113.009 51.3011 112.638C51.2339 112.267 51.25 111.886 51.3483 111.522L56.551 92.4938C56.6111 92.3108 56.7153 92.1451 56.8543 92.0113C56.9934 91.8774 57.1633 91.7794 57.3491 91.7257C57.5349 91.6721 57.731 91.6645 57.9205 91.7035C58.1099 91.7425 58.2869 91.827 58.4361 91.9496L72.2345 105.686C72.5052 105.948 72.7143 106.266 72.847 106.618C72.9797 106.97 73.0326 107.347 73.002 107.722C72.9714 108.097 72.858 108.46 72.6699 108.786C72.4818 109.112 72.2237 109.393 71.914 109.608Z" fill="#FF931E"/>
<path d="M75.816 101.989L61.8103 88.0653C61.6655 87.9167 61.5617 87.7334 61.509 87.5331C61.4564 87.3328 61.4566 87.1224 61.5097 86.9223C61.5628 86.7221 61.667 86.5391 61.8122 86.3908C61.9573 86.2425 62.1384 86.1342 62.3381 86.0761L81.1884 81.0471C81.5511 80.9495 81.9309 80.9325 82.3009 80.9973C82.6709 81.062 83.0221 81.207 83.3296 81.4218C83.6371 81.6366 83.8935 81.9161 84.0805 82.2405C84.2675 82.5649 84.3806 82.9262 84.4118 83.2989C84.9418 89.7455 83.2967 96.1839 79.7369 101.595C79.5288 101.908 79.2533 102.171 78.9305 102.365C78.6077 102.559 78.2456 102.68 77.8703 102.717C77.4951 102.755 77.1161 102.709 76.7608 102.583C76.4056 102.457 76.0828 102.254 75.816 101.989Z" fill="#FF931E"/>
</g>
<defs>
<clipPath id="clip0_644_1311">
<rect width="101" height="131" fill="white"/>
</clipPath>
</defs>
</svg>
