<svg width="203" height="30" viewBox="0 0 203 30" fill="none" xmlns="http://www.w3.org/2000/svg">
<g clip-path="url(#clip0_640_1202)">
<path d="M9.98611 25.7257L2.15686 9.52075H0L9.86298 29.9999L19.6793 9.52075H17.7771L9.98611 25.7257Z" fill="#231F20"/>
<path d="M29.211 9.56323H27.2452V29.0531H29.211V9.56323Z" fill="#231F20"/>
<path d="M28.2302 2.66772C27.241 2.66772 26.6975 3.17929 26.6975 4.10516C26.6975 5.03104 27.241 5.54682 28.2302 5.54682C29.2195 5.54682 29.763 5.03527 29.763 4.10516C29.763 3.17506 29.2153 2.66772 28.2302 2.66772Z" fill="#231F20"/>
<path d="M41.6004 25.9202C41.0664 25.3958 40.6468 24.7673 40.3678 24.074C40.0887 23.3808 39.9562 22.6377 39.9785 21.8912V11.3515H45.8079V9.56316H39.9785V1.89404H38.0127V21.8912C37.9829 22.8845 38.1642 23.8729 38.5447 24.7916C38.9251 25.7104 39.4962 26.5387 40.2205 27.2224C41.647 28.5903 43.5604 29.3384 45.5405 29.3024H45.8504V27.5141H45.5405C44.8097 27.5268 44.0839 27.3922 43.4068 27.1183C42.7297 26.8443 42.1152 26.4368 41.6004 25.9202Z" fill="#231F20"/>
<path d="M70.442 13.3089C69.6941 12.1519 68.6739 11.1941 67.47 10.5186C65.8576 9.56332 64.0177 9.05532 62.1415 9.04737C60.7818 9.03094 59.4328 9.28921 58.1762 9.80659C56.9195 10.324 55.7813 11.0897 54.8302 12.0575C53.8665 12.9989 53.101 14.1222 52.5784 15.3617C52.0558 16.6012 51.7866 17.9321 51.7866 19.2764C51.7866 20.6207 52.0558 21.9515 52.5784 23.191C53.101 24.4305 53.8665 25.5538 54.8302 26.4952C55.7813 27.463 56.9195 28.2288 58.1762 28.7461C59.4328 29.2635 60.7818 29.5218 62.1415 29.5054C63.9799 29.5068 65.7844 29.0131 67.3638 28.0764C68.6017 27.3604 69.6566 26.3693 70.4463 25.1804V29.0445H72.4121V9.50396H70.4463L70.442 13.3089ZM68.0601 13.3512C69.6363 14.9267 70.5229 17.0588 70.5269 19.2826C70.5309 21.5064 69.6518 23.6416 68.0814 25.2227C67.328 26.0211 66.4163 26.655 65.4041 27.0844C64.3918 27.5138 63.3011 27.7292 62.2009 27.717C59.9707 27.6898 57.8392 26.7972 56.2597 25.2292C54.6803 23.6611 53.7774 21.5414 53.7433 19.3208C53.7389 18.2123 53.9589 17.1143 54.39 16.0923C54.8211 15.0703 55.4546 14.1452 56.2526 13.3723C57.014 12.5641 57.9352 11.9215 58.9582 11.4849C59.9812 11.0484 61.0838 10.8273 62.1967 10.8357C63.2961 10.8304 64.3847 11.052 65.3938 11.4864C66.403 11.9208 67.3108 12.5586 68.0601 13.3596V13.3512Z" fill="#231F20"/>
<path d="M101.364 9.05588C99.7555 9.00889 98.1707 9.45133 96.8211 10.3242C95.8226 10.9848 95.0334 11.9144 94.5453 13.0046C94.0285 11.9619 93.2739 11.0542 92.3418 10.3538C90.0618 8.63734 87.4251 8.73034 85.1027 10.0156C84.3383 10.428 83.6446 10.9589 83.0477 11.5883V9.50402H81.0819V29.0362H83.0477V16.1331C83.0888 14.7361 83.6673 13.4081 84.6638 12.4238C85.6602 11.4395 86.9984 10.874 88.4017 10.8442C89.0884 10.8334 89.7696 10.9676 90.4004 11.2379C91.0312 11.5083 91.5974 11.9087 92.0615 12.4127C92.55 12.9015 92.9359 13.4822 93.1968 14.1209C93.4578 14.7596 93.5885 15.4436 93.5815 16.1331V29.0531H95.5558V16.1331C95.5595 15.4372 95.7086 14.7496 95.9937 14.1142C96.2788 13.4788 96.6936 12.9094 97.2117 12.4423C97.7076 11.9391 98.2988 11.5388 98.9511 11.2645C99.6033 10.9902 100.304 10.8474 101.012 10.8442C101.693 10.8366 102.368 10.9685 102.995 11.2318C103.623 11.4951 104.189 11.8841 104.659 12.3747C105.158 12.8806 105.55 13.4818 105.811 14.1421C106.071 14.8025 106.195 15.5085 106.175 16.2177V29.0531H108.14V16.2177C108.14 14.0362 107.453 12.2816 106.102 10.9922C105.48 10.3739 104.741 9.88448 103.928 9.55214C103.114 9.21981 102.243 9.05114 101.364 9.05588Z" fill="#231F20"/>
<path d="M119.32 9.56323H117.354V29.0531H119.32V9.56323Z" fill="#231F20"/>
<path d="M118.335 2.66772C117.35 2.66772 116.806 3.17929 116.806 4.10516C116.806 5.03104 117.35 5.54682 118.335 5.54682C119.32 5.54682 119.867 5.03527 119.867 4.10516C119.867 3.17506 119.332 2.66772 118.335 2.66772Z" fill="#231F20"/>
<path d="M137.551 9.05593C134.405 9.05593 132.032 10.2186 130.507 12.5142V9.50407H128.542V29.0362H130.507V17.7312C130.506 16.8239 130.694 15.9263 131.059 15.0952C131.425 14.264 131.96 13.5176 132.63 12.9032C133.271 12.2511 134.035 11.7331 134.88 11.3795C135.724 11.0259 136.631 10.844 137.547 10.8443C138.437 10.8331 139.32 11.0093 140.137 11.3612C140.954 11.713 141.688 12.2327 142.289 12.8863C142.919 13.5246 143.417 14.2802 143.754 15.1101C144.09 15.94 144.259 16.8278 144.251 17.7228V29.0447H146.217V17.7312C146.236 16.5928 146.025 15.4622 145.596 14.4068C145.167 13.3514 144.529 12.3928 143.72 11.5883C142.922 10.7662 141.963 10.117 140.901 9.68125C139.839 9.2455 138.699 9.03262 137.551 9.05593Z" fill="#231F20"/>
<path d="M156.424 2.66772C155.434 2.66772 154.891 3.17929 154.891 4.10516C154.891 5.03104 155.434 5.54682 156.424 5.54682C157.413 5.54682 157.956 5.03527 157.956 4.10516C157.956 3.17506 157.413 2.66772 156.424 2.66772Z" fill="#231F20"/>
<path d="M157.404 9.56323H155.439V29.0531H157.404V9.56323Z" fill="#231F20"/>
<path d="M174.362 17.8496C173.458 17.2831 172.549 16.7504 171.666 16.2642C170.865 15.8309 170.121 15.3013 169.45 14.6873C169.196 14.4812 168.989 14.224 168.843 13.9324C168.697 13.6409 168.614 13.3218 168.601 12.9962C168.596 12.7013 168.66 12.4094 168.787 12.1432C168.915 11.877 169.102 11.6437 169.335 11.4615C169.818 11.0409 170.439 10.8121 171.08 10.8189C172.354 10.8189 173.398 11.4361 174.243 12.7045L174.808 13.55V10.7005L174.727 10.6117C174.296 10.1151 173.762 9.7173 173.162 9.4458C172.561 9.17431 171.909 9.03553 171.25 9.03902C170.05 8.9914 168.874 9.38573 167.947 10.1467C167.535 10.476 167.203 10.8932 166.976 11.3673C166.748 11.8415 166.63 12.3606 166.631 12.8863C166.618 13.9133 166.982 14.9097 167.654 15.6892C168.322 16.4705 169.119 17.1324 170.01 17.6467L172.693 19.2236C173.535 19.7167 174.286 20.3486 174.914 21.0923C175.511 21.8258 175.823 22.7487 175.793 23.6923C175.779 24.229 175.646 24.756 175.405 25.236C175.164 25.716 174.819 26.1373 174.396 26.47C173.437 27.3195 172.189 27.7731 170.906 27.7383C168.651 27.7383 167.059 26.6433 166.036 24.3857L165.446 23.0962V26.6095L165.484 26.6771C166.009 27.5832 166.798 28.3088 167.747 28.7572C168.766 29.2698 169.892 29.5335 171.033 29.5266C172.805 29.5614 174.518 28.8991 175.801 27.6833C176.431 27.1248 176.933 26.4385 177.275 25.6707C177.616 24.9028 177.788 24.0712 177.78 23.2315C177.795 22.0964 177.44 20.9871 176.769 20.0692C176.12 19.1805 175.302 18.4266 174.362 17.8496Z" fill="#231F20"/>
<path d="M198.979 26.6516C197.643 27.4055 196.129 27.7908 194.593 27.7677C193.069 27.7677 191.447 27.1251 189.783 25.861L203 12.8861L202.805 12.6662C200.682 10.3156 198.075 9.11917 195.103 9.11917C193.71 9.08873 192.325 9.33976 191.032 9.85713C189.738 10.3745 188.564 11.1474 187.579 12.1293C186.614 13.0445 185.846 14.1459 185.323 15.3663C184.8 16.5868 184.532 17.9006 184.535 19.2277C184.532 20.5735 184.802 21.906 185.329 23.1454C185.856 24.3848 186.628 25.5054 187.601 26.4402C188.525 27.423 189.643 28.2055 190.885 28.7387C192.127 29.2719 193.466 29.5444 194.818 29.5391H195.201C196.62 29.5485 198.025 29.251 199.318 28.667C200.611 28.0831 201.762 27.2267 202.69 26.1569L202.771 26.0682V22.8043L202.206 23.6499C201.377 24.8845 200.273 25.9118 198.979 26.6516ZM194.733 10.8864C196.751 10.878 198.706 11.5804 200.253 12.8692L188.45 24.5546C187.17 23.0316 186.479 21.1034 186.501 19.1178C186.578 16.9636 187.471 14.9183 188.999 13.3918C190.528 11.8652 192.579 10.9703 194.742 10.8864H194.733Z" fill="#231F20"/>
<path d="M57.2079 9.34753C53.0682 11.8842 49.8117 7.79594 49.6631 0C52.8389 4.12204 59.5558 3.34414 58.2693 8.38782C56.6197 8.2424 55.0842 7.48848 53.9641 6.27396C54.6731 7.8509 55.6921 8.97126 57.2079 9.34753Z" fill="#92C84A"/>
<path d="M59.8148 8.65852C61.9377 9.94798 63.5978 7.86793 63.6743 3.87695C62.0524 5.99082 58.6133 5.58918 59.2714 8.1681C60.1145 8.09251 60.8996 7.70842 61.4749 7.09003C61.3402 7.46228 61.12 7.798 60.8317 8.07034C60.5435 8.34269 60.1952 8.54412 59.8148 8.65852Z" fill="#FF931E"/>
<path d="M67.6228 17.1519L63.3176 18.3019C63.2724 18.3138 63.2248 18.3136 63.1796 18.3015C63.1344 18.2894 63.0932 18.2656 63.0602 18.2327C63.0271 18.1997 63.0032 18.1587 62.9911 18.1137C62.9789 18.0688 62.9787 18.0214 62.9907 17.9763L64.137 13.7317C64.1582 13.6501 64.1973 13.5742 64.2514 13.5094C64.3055 13.4447 64.3734 13.3926 64.4501 13.357C64.5268 13.3215 64.6105 13.3033 64.6951 13.3037C64.7797 13.3042 64.8632 13.3233 64.9395 13.3596C66.2591 13.9823 67.3342 15.0231 67.9965 16.3191C68.0378 16.3968 68.0607 16.4828 68.0637 16.5707C68.0666 16.6585 68.0494 16.7459 68.0134 16.8261C67.9774 16.9064 67.9235 16.9774 67.8559 17.0339C67.7882 17.0903 67.7085 17.1307 67.6228 17.1519Z" fill="#FF931E"/>
<path d="M61.3984 17.8792L58.2863 14.7845C58.2272 14.7245 58.1819 14.6525 58.1536 14.5733C58.1253 14.4942 58.1146 14.4099 58.1223 14.3262C58.13 14.2426 58.1558 14.1616 58.1981 14.0889C58.2403 14.0161 58.2979 13.9534 58.367 13.9051C59.5707 13.0777 61.0163 12.6717 62.4769 12.751C62.5623 12.7562 62.6455 12.7803 62.7205 12.8215C62.7954 12.8626 62.8602 12.9199 62.9102 12.9891C62.9602 13.0583 62.9941 13.1377 63.0095 13.2215C63.0248 13.3054 63.0213 13.3916 62.9991 13.4739L61.8443 17.7608C61.833 17.8064 61.8096 17.8481 61.7765 17.8816C61.7435 17.9151 61.7021 17.9392 61.6565 17.9513C61.611 17.9634 61.563 17.9631 61.5176 17.9504C61.4722 17.9377 61.431 17.9131 61.3984 17.8792Z" fill="#FF931E"/>
<path d="M60.5196 19.2278L56.2738 20.3608C56.1922 20.3828 56.1066 20.3866 56.0233 20.3721C55.9399 20.3575 55.8608 20.3248 55.7916 20.2764C55.7223 20.228 55.6645 20.165 55.6224 20.092C55.5803 20.0189 55.5548 19.9375 55.5478 19.8535C55.4284 18.4011 55.799 16.9506 56.6008 15.7315C56.6476 15.6602 56.7098 15.6003 56.7829 15.5561C56.856 15.5119 56.9381 15.4845 57.0232 15.476C57.1082 15.4675 57.1942 15.478 57.2746 15.5069C57.3551 15.5357 57.428 15.5821 57.4881 15.6427L60.6428 18.7797C60.6753 18.8134 60.6986 18.855 60.7102 18.9004C60.7218 18.9458 60.7213 18.9934 60.7089 19.0385C60.6965 19.0837 60.6725 19.1249 60.6394 19.158C60.6062 19.1912 60.5649 19.2153 60.5196 19.2278Z" fill="#FF931E"/>
<path d="M60.095 24.8548C60.0737 24.9358 60.0348 25.0112 59.9809 25.0755C59.9271 25.1399 59.8597 25.1917 59.7835 25.2272C59.7073 25.2627 59.6242 25.281 59.5401 25.281C59.456 25.2809 59.3729 25.2624 59.2968 25.2268C57.9749 24.6074 56.8989 23.5657 56.2398 22.2674C56.2 22.1912 56.1779 22.1071 56.175 22.0213C56.1721 21.9354 56.1886 21.85 56.2232 21.7713C56.2578 21.6927 56.3097 21.6227 56.375 21.5666C56.4404 21.5106 56.5175 21.4697 56.6007 21.4472L60.9102 20.2973C60.9553 20.2867 61.0024 20.2877 61.0469 20.3003C61.0915 20.3129 61.1321 20.3367 61.1648 20.3693C61.1976 20.4019 61.2214 20.4423 61.2341 20.4867C61.2467 20.5311 61.2478 20.5779 61.2371 20.6228L60.095 24.8548Z" fill="#FF931E"/>
<path d="M65.8565 24.6942C64.6527 25.5216 63.2071 25.9276 61.7466 25.8483C61.6611 25.8431 61.5779 25.819 61.503 25.7778C61.4281 25.7366 61.3632 25.6794 61.3133 25.6102C61.2633 25.541 61.2294 25.4616 61.214 25.3778C61.1986 25.2939 61.2021 25.2077 61.2243 25.1254L62.3792 20.8385C62.3905 20.7929 62.4139 20.7512 62.4469 20.7177C62.4799 20.6842 62.5214 20.6601 62.5669 20.648C62.6125 20.6359 62.6605 20.6362 62.7059 20.6489C62.7513 20.6616 62.7924 20.6862 62.825 20.7201L65.9372 23.8148C65.9969 23.8744 66.0428 23.9464 66.0716 24.0256C66.1003 24.1049 66.1112 24.1894 66.1035 24.2733C66.0958 24.3572 66.0697 24.4384 66.027 24.5111C65.9843 24.5838 65.9261 24.6463 65.8565 24.6942Z" fill="#FF931E"/>
<path d="M66.7354 22.9776L63.585 19.8364C63.5523 19.8034 63.5287 19.7624 63.5168 19.7176C63.5048 19.6727 63.5048 19.6255 63.5168 19.5806C63.5289 19.5357 63.5524 19.4948 63.5853 19.4618C63.6181 19.4288 63.659 19.4049 63.7039 19.3925L67.9497 18.2595C68.0311 18.2376 68.1163 18.2336 68.1994 18.248C68.2824 18.2623 68.3613 18.2946 68.4305 18.3425C68.4997 18.3905 68.5575 18.4529 68.5999 18.5255C68.6422 18.5981 68.6681 18.679 68.6758 18.7626C68.797 20.2159 68.428 21.668 67.627 22.8889C67.5798 22.9602 67.5172 23.0202 67.4437 23.0644C67.3703 23.1086 67.2879 23.136 67.2025 23.1445C67.117 23.153 67.0308 23.1424 66.95 23.1135C66.8692 23.0847 66.7959 23.0383 66.7354 22.9776Z" fill="#FF931E"/>
</g>
<defs>
<clipPath id="clip0_640_1202">
<rect width="203" height="30" fill="white"/>
</clipPath>
</defs>
</svg>
