<svg width="106" height="52" viewBox="0 0 106 52" fill="none" xmlns="http://www.w3.org/2000/svg">
<path d="M0.52 51C0.52 49.1867 0.68 47.3733 1 45.56C1.32 43.6933 1.93333 41.8533 2.84 40.04C3.74667 38.2267 5.08 36.4933 6.84 34.84C8.6 33.1333 10.92 31.5333 13.8 30.04C15.3467 29.24 16.9467 28.4667 18.6 27.72C20.2533 26.92 21.8 26.0667 23.24 25.16C24.7333 24.2 25.9067 23.1333 26.76 21.96C27.6667 20.7333 28.12 19.2933 28.12 17.64C28.12 16.3067 27.72 15 26.92 13.72C26.1733 12.44 25 11.4 23.4 10.6C21.8533 9.8 19.9067 9.4 17.56 9.4C15.8533 9.4 14.3067 9.64 12.92 10.12C11.5333 10.6 10.3067 11.2133 9.24 11.96C8.17333 12.6533 7.26667 13.3733 6.52 14.12C5.77333 14.8133 5.16 15.4 4.68 15.88L1.24 12.12C1.50667 11.8 2.09333 11.24 3 10.44C3.96 9.58667 5.16 8.70667 6.6 7.8C8.09333 6.89333 9.82667 6.12 11.8 5.48C13.8267 4.84 16.04 4.52 18.44 4.52C21.6933 4.52 24.4667 5.10666 26.76 6.28C29.1067 7.4 30.8933 8.92 32.12 10.84C33.3467 12.76 33.96 14.84 33.96 17.08C33.96 19.2667 33.48 21.16 32.52 22.76C31.6133 24.3067 30.4133 25.6667 28.92 26.84C27.48 27.96 25.96 28.9467 24.36 29.8C22.8133 30.6 21.4 31.2933 20.12 31.88C17.6133 33.0533 15.5067 34.2267 13.8 35.4C12.0933 36.5733 10.7333 37.7733 9.72 39C8.70667 40.1733 7.90667 41.3467 7.32 42.52C6.78667 43.64 6.41333 44.8133 6.2 46.04H34.84V51H0.52ZM83.2788 27.56C83.2788 32.2533 82.3988 36.44 80.6388 40.12C78.9321 43.7467 76.5588 46.6 73.5188 48.68C70.4788 50.76 67.0388 51.8 63.1988 51.8C59.3588 51.8 55.9188 50.76 52.8788 48.68C49.8921 46.6 47.5188 43.7467 45.7588 40.12C43.9988 36.44 43.1188 32.2533 43.1188 27.56C43.1188 22.8667 43.9988 18.7067 45.7588 15.08C47.5188 11.4 49.8921 8.52 52.8788 6.44C55.9188 4.30667 59.3588 3.24 63.1988 3.24C67.0388 3.24 70.4788 4.30667 73.5188 6.44C76.5588 8.52 78.9321 11.4 80.6388 15.08C82.3988 18.7067 83.2788 22.8667 83.2788 27.56ZM77.7588 27.56C77.7588 23.7733 77.1454 20.44 75.9188 17.56C74.6921 14.68 72.9854 12.44 70.7988 10.84C68.6121 9.18666 66.0788 8.36 63.1988 8.36C60.3188 8.36 57.7854 9.18666 55.5988 10.84C53.4121 12.44 51.6788 14.68 50.3988 17.56C49.1721 20.44 48.5588 23.7733 48.5588 27.56C48.5588 31.3467 49.1721 34.68 50.3988 37.56C51.6788 40.44 53.4121 42.68 55.5988 44.28C57.7854 45.88 60.3188 46.68 63.1988 46.68C66.0788 46.68 68.6121 45.88 70.7988 44.28C72.9854 42.6267 74.6921 40.3867 75.9188 37.56C77.1454 34.68 77.7588 31.3467 77.7588 27.56Z" fill="#050505"/>
<path d="M105.271 6.232V9.688H99.6071V15.832H95.7671V9.688H90.1031V6.232H95.7671V0.0879974H99.6071V6.232H105.271Z" fill="#FF931E"/>
</svg>
