<svg width="50" height="50" viewBox="0 0 50 50" fill="none" xmlns="http://www.w3.org/2000/svg">
<g clip-path="url(#clip0_702_71)">
<path d="M47.8026 22.2294H44.287V12.5517C44.287 10.5324 42.6442 8.88961 40.6249 8.88961H30.753C30.9643 7.982 31.1024 6.99684 31.1671 5.93503C31.1902 5.54704 30.9965 5.18317 30.6615 4.98542C30.3253 4.78708 29.9116 4.79343 29.5821 5.00163C29.0056 5.3656 28.4949 5.63171 27.9994 5.82311C28.4165 4.01999 28.0597 1.97859 27.4479 0.609257C27.2922 0.262285 26.96 0.0297661 26.5809 0.00252003C26.1997 -0.0253119 25.8359 0.158672 25.6317 0.480351C24.7164 1.91707 23.3825 2.76101 21.5539 3.06042C19.7348 3.35818 17.4269 3.12937 14.4979 2.36082C12.7927 1.91326 11.092 1.90252 9.4431 2.32878C9.0514 2.43005 8.81605 2.82966 8.91732 3.22126C9.01859 3.61296 9.4184 3.84812 9.8097 3.74714C11.2137 3.38425 12.666 3.3946 14.1261 3.77771C20.1837 5.36765 24.1097 4.78855 26.3835 1.94519C26.7592 3.18337 26.8903 4.81306 26.3855 6.10251C26.2431 6.46413 26.3137 6.87038 26.5698 7.16295C26.8247 7.45416 27.2161 7.57692 27.5895 7.48493C28.2709 7.31833 28.924 7.05983 29.6373 6.66969C28.8907 13.7975 24.2825 16.0694 17.3217 14.7713C13.9748 14.1475 11.2615 12.8823 10.9631 12.7401C10.6992 12.6143 10.3859 12.6575 10.1658 12.85C9.94574 13.0424 9.86117 13.3472 9.95062 13.6254C10.7333 16.0593 10.2003 19.1084 8.59681 21.4929H6.82279C6.81049 21.4929 6.79819 21.493 6.78588 21.4931C6.78354 21.4931 6.7811 21.4931 6.77875 21.4932C6.76781 21.4933 6.75688 21.4935 6.74594 21.4938C6.74428 21.4938 6.74262 21.4939 6.74096 21.4939C6.72817 21.4942 6.71528 21.4946 6.70248 21.4951C6.70209 21.4951 6.7017 21.4951 6.70131 21.4951C6.68881 21.4955 6.67641 21.496 6.66391 21.4966C6.66274 21.4967 6.66156 21.4967 6.66039 21.4968C6.10463 21.5244 5.57543 21.6931 5.11381 21.9861C0.987748 17.8215 1.08345 13.9171 1.92183 11.339C2.78081 8.69742 4.54956 7.11764 5.06889 6.99362C5.2436 7.03512 5.42905 7.011 5.58872 6.9238C5.77758 6.82067 5.91157 6.63971 5.95502 6.42907C6.02534 6.08815 6.49721 5.44753 7.36684 4.84646C7.69955 4.61648 7.78285 4.16023 7.55287 3.82741C7.32289 3.4946 6.86664 3.4112 6.53393 3.64138C5.67211 4.23708 5.03735 4.91696 4.71723 5.57224C4.35883 5.6652 3.96264 5.88766 3.53218 6.23864C2.89497 6.75807 2.24634 7.51676 1.70552 8.37496C0.975638 9.53316 -0.212153 11.9354 0.0326711 15.0102C0.25894 17.8517 1.62232 20.5475 4.08745 23.0312C3.78471 23.5276 3.6229 24.0989 3.6229 24.6939C3.6229 26.459 5.05854 27.895 6.82309 27.895H7.7684V33.4113C6.38246 33.7655 5.1271 34.5418 4.18471 35.638C3.09253 36.9084 2.49107 38.5319 2.49107 40.2095V47.8022C2.49107 49.0138 3.47671 49.9995 4.68833 49.9995H21.5027C22.7144 49.9995 23.7 49.0138 23.7 47.8022V41.7905C23.7 40.9179 23.5695 40.0576 23.3122 39.2333C23.1917 38.8473 22.7811 38.632 22.3948 38.7524C22.0087 38.873 21.7934 39.2837 21.914 39.6699C22.1272 40.3526 22.2352 41.0661 22.2352 41.7905V47.8022C22.2352 48.2061 21.9067 48.5347 21.5027 48.5347H10.0244V42.2019C10.0244 40.125 8.33471 38.4355 6.25785 38.4355C5.43657 38.4355 4.67583 38.6997 4.0562 39.1477C4.43911 37.1465 5.88744 35.516 7.84535 34.91C8.00453 35.2322 8.4932 35.8241 9.99388 37.2098C11.4058 38.5135 12.8915 39.7164 14.0703 40.5103C15.3769 41.39 16.3315 41.8095 17.0572 41.8094C17.2714 41.8094 17.4658 41.7729 17.6432 41.7009C19.1811 41.0776 19.0349 38.7541 18.9869 37.9906C18.9345 37.1568 18.797 36.3015 18.6632 35.6085C19.3936 36.0298 20.0478 36.5804 20.5937 37.2379C20.7385 37.4124 20.9473 37.5025 21.1576 37.5025C21.3225 37.5025 21.4883 37.4473 21.6251 37.3337C21.9363 37.0753 21.9792 36.6136 21.7208 36.3024C20.8381 35.239 19.7194 34.4076 18.4588 33.8733C20.4082 33.5409 22.2036 32.617 23.6302 31.1903C24.9941 29.8263 25.8986 28.1252 26.2659 26.2749H28.4107C28.3559 27.2362 28.1508 28.1725 27.7987 29.0656C27.6207 29.5187 27.7293 30.0332 28.0754 30.3765C28.3091 30.6082 28.6195 30.7313 28.9356 30.7313C29.0885 30.7313 29.2428 30.7025 29.39 30.6432C31.523 29.7869 33.3249 28.2449 34.5059 26.275H36.621V31.1481C36.621 32.3596 37.6067 33.3453 38.8182 33.3453H42.3277C43.1554 34.8652 44.3446 36.1707 45.7894 37.1402C45.9956 37.2784 46.233 37.3477 46.4705 37.3477C46.7004 37.3477 46.9303 37.2827 47.1319 37.1526C47.5423 36.8875 47.7553 36.4043 47.6747 35.9228C47.5898 35.4109 47.5467 34.8911 47.5467 34.3776C47.5467 34.0337 47.5659 33.6884 47.6039 33.3453H47.8026C49.0141 33.3453 49.9999 32.3596 49.9999 31.1481V24.4264C49.9999 23.2152 49.0141 22.2294 47.8026 22.2294ZM4.68862 48.535C4.28471 48.535 3.9562 48.2065 3.9562 47.8026V46.7772H8.55951V48.535H4.68862ZM6.25785 39.9007C7.52699 39.9007 8.55951 40.9332 8.55951 42.2023V45.3124H3.9562V42.2023C3.9562 40.9332 4.98872 39.9007 6.25785 39.9007ZM27.168 14.7408C27.5027 15.46 27.6825 16.2865 27.6825 17.1367C27.6825 18.4926 27.2153 19.7661 26.4512 20.6354V18.0859C26.4512 17.1772 26.3159 16.2868 26.0482 15.4303C26.1959 15.3541 26.3407 15.2744 26.4827 15.1907C26.7199 15.0508 26.9483 14.9007 27.168 14.7408ZM17.1007 40.3409C17.0923 40.3433 16.2219 40.5191 12.8915 37.792C11.127 36.347 9.61879 34.853 9.23334 34.3722C9.23334 33.925 9.23334 31.0624 9.23334 30.3236C11.0665 32.6665 13.8875 34.0368 16.9032 34.0111C16.9076 34.4198 16.8792 34.2938 16.988 34.7733C18.1216 39.7692 17.2016 40.2996 17.1007 40.3409ZM22.5943 30.1549C21.2402 31.5091 19.494 32.3291 17.6115 32.5091C17.5824 32.5101 17.5538 32.5127 17.5257 32.5169C17.2921 32.5368 17.0565 32.5469 16.8193 32.5469C13.4195 32.5469 10.4066 30.4631 9.1975 27.3202C9.19017 27.2978 9.18187 27.2758 9.1725 27.2544C9.13295 27.1489 9.09535 27.0422 9.0599 26.9344C8.96107 26.6339 8.68051 26.4308 8.3641 26.4308H6.82319C5.86635 26.4308 5.08784 25.6518 5.08784 24.6945C5.08784 24.2358 5.26518 23.803 5.58715 23.4759C5.91606 23.1419 6.35502 22.958 6.82319 22.958H8.97806C9.21214 22.958 9.43217 22.8461 9.57006 22.6569C10.9679 20.7382 12.1405 17.7476 11.686 14.6459C12.9182 15.1349 14.8405 15.7992 17.0531 16.2116C20.0278 16.766 22.5866 16.6936 24.6896 15.9986C24.8866 16.6734 24.9862 17.3728 24.9862 18.086V22.1134C24.9861 22.122 24.986 22.1306 24.9862 22.1392V24.3799C24.9862 24.7329 24.964 25.0825 24.9201 25.427C24.9179 25.4409 24.916 25.455 24.9147 25.4693C24.6805 27.2379 23.877 28.8721 22.5943 30.1549ZM34.0809 24.8105C33.8126 24.8105 33.5658 24.9573 33.4375 25.193C32.5191 26.8816 31.0841 28.2374 29.3589 29.0585C29.7509 27.8768 29.9074 26.7137 29.8884 25.5316C29.8822 25.1315 29.5561 24.8105 29.1561 24.8105H26.4416C26.4479 24.6675 26.451 24.524 26.451 24.3799V22.5511C28.1024 21.5077 29.1472 19.4371 29.1472 17.1368C29.1472 15.9241 28.8504 14.7411 28.303 13.7423C29.1697 12.8261 29.8444 11.6952 30.3247 10.3546H40.6249C41.8364 10.3546 42.8221 11.3403 42.8221 12.5518V22.6132C42.8221 22.6917 42.8179 22.7693 42.8099 22.8456C42.8069 22.8648 42.8046 22.8841 42.803 22.9037C42.6604 23.9784 41.738 24.8105 40.6249 24.8105H34.0809ZM48.535 31.1484C48.535 31.5523 48.2065 31.8808 47.8026 31.8808H46.9696C46.6143 31.8808 46.3104 32.1357 46.2484 32.4854C46.1379 33.1089 46.0819 33.7456 46.0819 34.3778C46.0819 34.7832 46.105 35.1919 46.151 35.5989C45.0009 34.7228 44.0667 33.5886 43.431 32.291C43.308 32.04 43.0529 31.8808 42.7733 31.8808H38.8182C38.4143 31.8808 38.0858 31.5523 38.0858 31.1484V26.2753H40.6249C42.268 26.2753 43.6619 25.1875 44.1241 23.6943H47.8026C48.2065 23.6943 48.535 24.0228 48.535 24.4267V31.1484Z" fill="#56576B"/>
<path d="M22.0391 20.14C21.6346 20.14 21.3066 20.4678 21.3066 20.8724V21.6903C21.3066 22.0949 21.6346 22.4227 22.0391 22.4227C22.4436 22.4227 22.7715 22.0949 22.7715 21.6903V20.8724C22.7715 20.4679 22.4437 20.14 22.0391 20.14Z" fill="#56576B"/>
<path d="M16.1165 21.6903V20.8724C16.1165 20.4678 15.7885 20.14 15.384 20.14C14.9795 20.14 14.6516 20.4678 14.6516 20.8724V21.6903C14.6516 22.0949 14.9795 22.4227 15.384 22.4227C15.7885 22.4227 16.1165 22.0949 16.1165 21.6903Z" fill="#56576B"/>
<path d="M21.4634 24.7438C21.0806 24.6143 20.6645 24.8192 20.5346 25.2024C20.2697 25.9837 19.5371 26.5087 18.7116 26.5087C17.8861 26.5087 17.1535 25.9837 16.8887 25.2024C16.7588 24.8193 16.3432 24.6139 15.9599 24.7438C15.5768 24.8737 15.3715 25.2895 15.5014 25.6726C15.9679 27.049 17.258 27.9737 18.7116 27.9737C20.1652 27.9737 21.4554 27.049 21.9219 25.6726C22.0518 25.2895 21.8465 24.8737 21.4634 24.7438Z" fill="#56576B"/>
<path d="M16.3644 19.3407C16.4959 19.4386 16.6492 19.4858 16.8014 19.4857C17.0249 19.4857 17.2456 19.3837 17.3893 19.1907C17.6309 18.8663 17.5639 18.4073 17.2394 18.1658C15.9736 17.2229 14.6353 17.2229 13.3694 18.1658C13.045 18.4074 12.9779 18.8663 13.2195 19.1907C13.4612 19.5152 13.9201 19.5823 14.2444 19.3406C14.9873 18.7874 15.6214 18.7872 16.3644 19.3407Z" fill="#56576B"/>
<path d="M24.0537 18.1659C22.7876 17.2229 21.4495 17.2231 20.1836 18.1659C19.8592 18.4075 19.7921 18.8664 20.0337 19.1907C20.2754 19.5152 20.7343 19.5823 21.0586 19.3406C21.8016 18.7873 22.4357 18.7873 23.1787 19.3406C23.31 19.4385 23.4635 19.4857 23.6156 19.4856C23.8391 19.4856 24.0598 19.3838 24.2036 19.1906C24.4452 18.8663 24.3781 18.4074 24.0537 18.1659Z" fill="#56576B"/>
<path d="M38.5984 18.2621H38.696C39.1006 18.2621 39.4285 17.9343 39.4285 17.5297C39.4285 17.1251 39.1006 16.7972 38.696 16.7972H38.5984C38.1938 16.7972 37.866 17.1251 37.866 17.5297C37.866 17.9343 38.1938 18.2621 38.5984 18.2621Z" fill="#56576B"/>
<path d="M34.9119 16.7972H34.8142C34.4096 16.7972 34.0818 17.1251 34.0818 17.5297C34.0818 17.9343 34.4096 18.2621 34.8142 18.2621H34.9119C35.3165 18.2621 35.6443 17.9343 35.6443 17.5297C35.6443 17.1251 35.3164 16.7972 34.9119 16.7972Z" fill="#56576B"/>
<path d="M31.1277 16.7972H31.03C30.6254 16.7972 30.2976 17.1251 30.2976 17.5297C30.2976 17.9343 30.6254 18.2621 31.03 18.2621H31.1277C31.5323 18.2621 31.8601 17.9343 31.8601 17.5297C31.8601 17.1251 31.5322 16.7972 31.1277 16.7972Z" fill="#56576B"/>
<path d="M40.5435 27.051H40.4458C40.0412 27.051 39.7134 27.3789 39.7134 27.7834C39.7134 28.188 40.0412 28.5159 40.4458 28.5159H40.5435C40.948 28.5159 41.2759 28.188 41.2759 27.7834C41.2759 27.3789 40.9479 27.051 40.5435 27.051Z" fill="#56576B"/>
<path d="M43.3591 27.051H43.2615C42.8569 27.051 42.5291 27.3789 42.5291 27.7834C42.5291 28.188 42.8569 28.5159 43.2615 28.5159H43.3591C43.7637 28.5159 44.0916 28.188 44.0916 27.7834C44.0916 27.3789 43.7636 27.051 43.3591 27.051Z" fill="#56576B"/>
<path d="M46.175 27.051H46.0774C45.6728 27.051 45.345 27.3789 45.345 27.7834C45.345 28.188 45.6728 28.5159 46.0774 28.5159H46.175C46.5796 28.5159 46.9075 28.188 46.9075 27.7834C46.9075 27.3789 46.5795 27.051 46.175 27.051Z" fill="#56576B"/>
</g>
<defs>
<clipPath id="clip0_702_71">
<rect width="50" height="50" fill="white"/>
</clipPath>
</defs>
</svg>
