<svg width="50" height="50" viewBox="0 0 50 50" fill="none" xmlns="http://www.w3.org/2000/svg">
<path d="M34.5154 18.2671C34.1109 18.2671 33.783 18.595 33.783 18.9996V41.0477H5.75977V9.4729C5.75977 9.06831 5.43184 8.74048 5.02734 8.74048C4.62285 8.74048 4.29492 9.06831 4.29492 9.4729V46.3379C4.29492 48.3573 5.93769 50 7.95703 50H31.5857C33.6051 50 35.2479 48.3573 35.2479 46.3379V18.9996C35.2479 18.595 34.9199 18.2671 34.5154 18.2671ZM33.783 46.3379C33.783 47.5495 32.7974 48.5352 31.5857 48.5352H7.95703C6.74541 48.5352 5.75977 47.5495 5.75977 46.3379V42.5126H33.783V46.3379Z" fill="#56576B"/>
<path d="M18.2104 47.5746H21.3327C22.3027 47.5746 23.0919 46.7854 23.0919 45.8154V45.2321C23.0919 44.2621 22.3027 43.4729 21.3327 43.4729H18.2104C17.2403 43.4729 16.4512 44.2621 16.4512 45.2321V45.8154C16.4512 46.7854 17.2403 47.5746 18.2104 47.5746ZM17.916 45.2322C17.916 45.0699 18.048 44.9378 18.2104 44.9378H21.3327C21.495 44.9378 21.6271 45.0699 21.6271 45.2322V45.8155C21.6271 45.9778 21.495 46.1098 21.3327 46.1098H18.2104C18.048 46.1098 17.916 45.9778 17.916 45.8155V45.2322Z" fill="#56576B"/>
<path d="M26.9065 30.4205C27.2472 30.6382 27.7001 30.5387 27.9181 30.1979C28.9097 28.6467 29.4339 26.8493 29.4339 25C29.4339 19.672 25.0993 15.3374 19.7712 15.3374C14.4432 15.3374 10.1086 19.6721 10.1086 25C10.1086 30.3279 14.4433 34.6626 19.7712 34.6626C21.8458 34.6626 23.8231 34.0149 25.4895 32.7896C25.8154 32.5501 25.8853 32.0917 25.6458 31.7658C25.4062 31.4398 24.9477 31.3699 24.6218 31.6095C23.2087 32.6485 21.5314 33.1978 19.7713 33.1978C15.251 33.1978 11.5736 29.5202 11.5736 25C11.5736 20.4798 15.2511 16.8022 19.7713 16.8022C24.2916 16.8022 27.9692 20.4798 27.9692 25C27.9692 26.569 27.5248 28.0937 26.6839 29.4088C26.4661 29.7497 26.5657 30.2025 26.9065 30.4205Z" fill="#56576B"/>
<path d="M19.7714 30.9832C21.6348 30.9832 23.1507 29.4673 23.1507 27.6039V27.0065C23.1507 26.2564 22.5404 25.6461 21.7903 25.6461H17.7524C17.0023 25.6461 16.3921 26.2564 16.3921 27.0065V27.6039C16.3921 29.4672 17.908 30.9832 19.7714 30.9832ZM17.8569 27.1109H21.6858V27.6038C21.6858 28.6595 20.827 29.5183 19.7714 29.5183C18.7157 29.5183 17.8569 28.6594 17.8569 27.6038V27.1109Z" fill="#56576B"/>
<path d="M17.1166 23.8867C17.4255 23.6255 17.4643 23.1634 17.203 22.8545C16.646 22.1957 16.0406 21.8616 15.4037 21.8616C14.7668 21.8616 14.1614 22.1957 13.6045 22.8545C13.3434 23.1634 13.382 23.6256 13.691 23.8867C13.8285 24.0029 13.9964 24.0597 14.1635 24.0597C14.3716 24.0597 14.5783 23.9715 14.7232 23.8001C14.9815 23.4947 15.2232 23.3263 15.4038 23.3263C15.5845 23.3263 15.8262 23.4947 16.0845 23.8001C16.3455 24.109 16.8075 24.1476 17.1166 23.8867Z" fill="#56576B"/>
<path d="M23.4584 23.8001C23.7167 23.4947 23.9584 23.3263 24.1391 23.3263C24.3197 23.3263 24.5614 23.4947 24.8197 23.8001C25.0808 24.109 25.5429 24.1477 25.852 23.8867C26.1608 23.6255 26.1996 23.1634 25.9384 22.8545C25.3814 22.1957 24.776 21.8616 24.1391 21.8616C23.5022 21.8616 22.8968 22.1957 22.3399 22.8545C22.0787 23.1634 22.1174 23.6256 22.4264 23.8867C22.5639 24.0029 22.7317 24.0597 22.8988 24.0597C23.1068 24.0597 23.3136 23.9715 23.4584 23.8001Z" fill="#56576B"/>
<path d="M43.3974 2.98018H35.1846C34.8641 1.28564 33.3725 0 31.5862 0H7.95728C5.93794 0 4.29517 1.64277 4.29517 3.66211V6.54297C4.29517 6.94756 4.6231 7.27539 5.02759 7.27539C5.43208 7.27539 5.76001 6.94756 5.76001 6.54297V3.66211C5.76001 2.45059 6.74565 1.46484 7.95728 1.46484H13.2074L13.6275 2.68096C14.0857 4.00732 15.3365 4.89844 16.7397 4.89844H22.8033C24.2066 4.89844 25.4573 4.00732 25.9155 2.68096L26.3357 1.46484H31.5862C32.5598 1.46484 33.3875 2.10137 33.6751 2.98018H30.2774C29.0047 2.98018 27.9693 4.01562 27.9693 5.28818V13.3172C27.9693 14.561 28.9584 15.5782 30.1914 15.6236L30.0198 17.2785C29.9662 17.7953 30.2294 18.2842 30.6904 18.524C30.8752 18.6201 31.0746 18.6672 31.2723 18.6672C31.5679 18.6672 31.86 18.562 32.0951 18.358L35.2436 15.6253H43.3974C44.6701 15.6253 45.7054 14.5898 45.7054 13.3172V5.28809C45.7054 4.01553 44.6701 2.98018 43.3974 2.98018ZM24.531 2.20264C24.2766 2.93896 23.5824 3.43359 22.8034 3.43359H16.7398C15.9608 3.43359 15.2666 2.93896 15.0122 2.20264L14.7572 1.46484H24.7859L24.531 2.20264ZM44.2406 13.3171C44.2406 13.7821 43.8623 14.1604 43.3974 14.1604H34.9702C34.7938 14.1604 34.6233 14.224 34.4901 14.3396L31.531 16.908L31.7322 14.9684C31.7536 14.7621 31.6865 14.5563 31.5476 14.4023C31.4087 14.2483 31.211 14.1604 31.0037 14.1604H30.2775C29.8125 14.1604 29.4342 13.7821 29.4342 13.3171V5.28809C29.4342 4.82314 29.8125 4.44492 30.2775 4.44492H34.4958C34.5025 4.44512 34.5091 4.44521 34.5159 4.44521C34.5226 4.44521 34.5293 4.44512 34.536 4.44492H43.3973C43.8623 4.44492 44.2405 4.82314 44.2405 5.28809V13.3171H44.2406Z" fill="#56576B"/>
<path d="M40.5662 8.27979H40.4612C40.0567 8.27979 39.7288 8.60762 39.7288 9.01221C39.7288 9.4168 40.0567 9.74463 40.4612 9.74463H40.5662C40.9707 9.74463 41.2986 9.4168 41.2986 9.01221C41.2986 8.60762 40.9707 8.27979 40.5662 8.27979Z" fill="#56576B"/>
<path d="M36.8897 8.27979H36.7847C36.3802 8.27979 36.0522 8.60762 36.0522 9.01221C36.0522 9.4168 36.3802 9.74463 36.7847 9.74463H36.8897C37.2942 9.74463 37.6222 9.4168 37.6222 9.01221C37.6222 8.60762 37.2942 8.27979 36.8897 8.27979Z" fill="#56576B"/>
<path d="M33.2132 8.27979H33.1082C32.7037 8.27979 32.3757 8.60762 32.3757 9.01221C32.3757 9.4168 32.7037 9.74463 33.1082 9.74463H33.2132C33.6177 9.74463 33.9457 9.4168 33.9457 9.01221C33.9457 8.60762 33.6177 8.27979 33.2132 8.27979Z" fill="#56576B"/>
</svg>
