<svg width="50" height="50" viewBox="0 0 50 50" fill="none" xmlns="http://www.w3.org/2000/svg">
<g clip-path="url(#clip0_702_55)">
<path d="M41.3738 6.53518C41.0649 6.26716 40.5968 6.30025 40.3287 6.60938C40.0605 6.9185 40.0938 7.38648 40.4029 7.65461C44.9631 11.6104 47.8036 17.1328 48.4002 23.0739C47.0169 21.7638 45.1687 21.0059 43.1951 21.0059C41.1395 21.0059 39.221 21.827 37.8213 23.2367C37.5683 17.4681 36.3194 12.1022 34.2392 7.94189C33.0623 5.58796 31.6824 3.74952 30.1697 2.47944C32.9973 3.1132 35.6887 4.26799 38.123 5.90745C38.4624 6.13596 38.9229 6.04616 39.1515 5.70681C39.38 5.36735 39.2902 4.90698 38.9508 4.67837C34.8272 1.90121 30.0105 0.431669 25.0201 0.427618C25.0132 0.427618 25.0065 0.427124 24.9997 0.427124C24.9914 0.427124 24.9831 0.427717 24.9747 0.427717C18.3065 0.43404 12.0383 3.03347 7.32232 7.74935C2.60042 12.471 0 18.749 0 25.4269C0 25.7683 0.233151 26.0654 0.564699 26.1466C0.623481 26.1611 0.682559 26.168 0.741044 26.168C1.01233 26.168 1.2682 26.0184 1.39802 25.7693C2.45253 23.7453 4.525 22.4879 6.80682 22.4879C9.08636 22.4879 11.1581 23.7454 12.2136 25.7696C12.3413 26.0145 12.5946 26.1681 12.8708 26.168C13.147 26.1679 13.4002 26.0142 13.5278 25.7693C14.5824 23.7453 16.6545 22.4879 18.9356 22.4879C20.3642 22.4879 21.7107 22.9815 22.7767 23.8476V43.8746C22.7767 44.5654 22.2147 45.1273 21.524 45.1273C21.1886 45.1273 20.8728 44.9969 20.6361 44.7614C20.4433 44.5685 20.3177 44.3163 20.2825 44.05C20.1201 42.8359 19.0002 41.9789 17.7841 42.1404C17.1957 42.2192 16.6732 42.5222 16.3128 42.9937C15.9521 43.4654 15.7968 44.0494 15.8756 44.6373C16.0391 45.8649 16.6139 47.0256 17.4945 47.9062C18.5716 48.981 20.0027 49.573 21.5241 49.573C24.0361 49.573 26.2238 47.9603 26.968 45.5601C27.0892 45.1693 26.8704 44.7542 26.4796 44.633C26.0889 44.5117 25.6738 44.7305 25.5525 45.1214C25.0019 46.8977 23.383 48.0912 21.5241 48.0912C20.3979 48.0912 19.3386 47.653 18.5418 46.8579C17.8906 46.2067 17.4654 45.3486 17.3444 44.4412C17.3182 44.2454 17.3698 44.0509 17.49 43.8939C17.6102 43.7367 17.7845 43.6355 17.9799 43.6094C18.3857 43.5555 18.7596 43.8415 18.8136 44.2455C18.8911 44.832 19.1663 45.3874 19.5896 45.8107C20.1072 46.3256 20.7941 46.6093 21.524 46.6093C23.0319 46.6093 24.2586 45.3826 24.2586 43.8747V25.6149C24.287 25.666 24.3153 25.7172 24.3424 25.7693C24.4701 26.0142 24.7224 26.1668 24.9995 26.168C25.2755 26.168 25.5288 26.0145 25.6565 25.7696C25.6836 25.7175 25.712 25.6662 25.7406 25.615V42.3927C25.7406 42.8019 26.0722 43.1337 26.4815 43.1337C26.8908 43.1337 27.2224 42.8019 27.2224 42.3927V23.8483C28.2891 22.9817 29.6363 22.4878 31.0654 22.4878C33.3459 22.4878 35.4177 23.7453 36.4722 25.7692C36.5998 26.0142 36.8531 26.1679 37.1293 26.1679C37.4055 26.1679 37.6587 26.0143 37.7864 25.7692C38.841 23.7452 40.9134 22.4878 43.1952 22.4878C45.4747 22.4878 47.5465 23.7453 48.602 25.7695C48.7599 26.0721 49.1039 26.2276 49.4354 26.1466C49.7668 26.0654 50 25.7683 50 25.4269C50 18.1763 46.8559 11.2906 41.3738 6.53518ZM6.80682 21.006C4.83067 21.006 2.98068 21.7647 1.59718 23.0759C2.12898 17.6819 4.48697 12.6803 8.37022 8.79724C11.5683 5.59922 15.5253 3.43596 19.8351 2.475C18.3203 3.74528 16.9387 5.58529 15.7604 7.94189C13.6802 12.1023 12.4313 17.4683 12.1783 23.2369C10.7785 21.8272 8.86072 21.006 6.80682 21.006ZM13.6655 23.1358C13.9249 17.6366 15.1163 12.5437 17.0857 8.6047C19.0627 4.65071 21.5864 2.32493 24.2589 1.96088V23.1882C22.8639 21.8083 20.9664 21.0061 18.9356 21.0061C16.9303 21.006 15.0554 21.7882 13.6655 23.1358ZM31.0654 21.006C29.0343 21.006 27.1364 21.8083 25.7408 23.1883V1.96078C28.4133 2.32483 30.937 4.65071 32.9139 8.6046C34.8833 12.5435 36.0746 17.6362 36.3341 23.1352C34.9445 21.7879 33.0702 21.006 31.0654 21.006Z" fill="#7279C5"/>
</g>
<defs>
<clipPath id="clip0_702_55">
<rect width="50" height="50" fill="white"/>
</clipPath>
</defs>
</svg>
