<svg width="50" height="50" viewBox="0 0 50 50" fill="none" xmlns="http://www.w3.org/2000/svg">
<path d="M31.9435 13.1767C32.3479 13.1767 32.6756 12.8488 32.6756 12.4445C32.6756 12.0401 32.3478 11.7124 31.9435 11.7124H18.0566C17.6522 11.7124 17.3245 12.0402 17.3245 12.4445C17.3245 12.8489 17.6523 13.1767 18.0566 13.1767H31.9435Z" fill="#56576B"/>
<path d="M13.334 19.5513V21.4562C13.334 22.354 14.0645 23.0845 14.9623 23.0845H35.0378C35.9356 23.0845 36.6661 22.354 36.6661 21.4562V19.5513C36.6661 18.6534 35.9356 17.923 35.0378 17.923H14.9623C14.0645 17.923 13.334 18.6534 13.334 19.5513ZM35.2017 19.5513V21.4562C35.2017 21.5466 35.1281 21.6201 35.0377 21.6201H14.9623C14.8719 21.6201 14.7983 21.5466 14.7983 21.4562V19.5513C14.7983 19.4609 14.8719 19.3873 14.9623 19.3873H35.0378C35.1281 19.3873 35.2017 19.4609 35.2017 19.5513Z" fill="#56576B"/>
<path d="M13.334 29.7433C13.334 30.6412 14.0645 31.3716 14.9623 31.3716H35.0378C35.9356 31.3716 36.6661 30.6412 36.6661 29.7433V27.8385C36.6661 26.9407 35.9356 26.2102 35.0378 26.2102H14.9623C14.0645 26.2102 13.334 26.9407 13.334 27.8385V29.7433ZM14.7983 27.8385C14.7983 27.7481 14.8719 27.6746 14.9623 27.6746H35.0378C35.1282 27.6746 35.2018 27.7481 35.2018 27.8385V29.7433C35.2018 29.8337 35.1282 29.9073 35.0378 29.9073H14.9623C14.8719 29.9073 14.7983 29.8337 14.7983 29.7433V27.8385Z" fill="#56576B"/>
<path d="M26.703 35.0238H23.2969C21.9124 35.0238 20.7859 36.1503 20.7859 37.5348V37.6343C20.7859 39.0189 21.9124 40.1454 23.2969 40.1454H26.703C28.0875 40.1454 29.214 39.0189 29.214 37.6343V37.5348C29.214 36.1503 28.0875 35.0238 26.703 35.0238ZM27.7497 37.6344C27.7497 38.2116 27.2801 38.6811 26.703 38.6811H23.2969C22.7198 38.6811 22.2502 38.2116 22.2502 37.6344V37.5349C22.2502 36.9578 22.7198 36.4883 23.2969 36.4883H26.703C27.2801 36.4883 27.7497 36.9578 27.7497 37.5349V37.6344Z" fill="#56576B"/>
<path d="M28.4819 44.8689H9.64436C8.89299 44.8689 8.28176 44.2576 8.28176 43.5063V13.9088C8.28176 13.5044 7.95393 13.1766 7.54963 13.1766C7.14524 13.1766 6.8175 13.5045 6.8175 13.9088V43.5063C6.8175 45.0651 8.08567 46.3333 9.64446 46.3333H28.482C28.8864 46.3333 29.2141 46.0054 29.2141 45.6011C29.2141 45.1968 28.8863 44.8689 28.4819 44.8689Z" fill="#56576B"/>
<path d="M41.1621 0.134549C40.2129 -0.148361 40.4971 0.119217 9.64434 0.017362C8.08565 0.017362 6.81738 1.28553 6.81738 2.84432V10.9802C6.81738 11.3845 7.14522 11.7123 7.54951 11.7123C7.95391 11.7123 8.28164 11.3845 8.28164 10.9802V8.88269H41.7183V43.5063C41.7183 44.0554 41.3915 44.5483 40.8857 44.7622C40.1532 45.072 40.3766 46.1688 41.1713 46.1688C41.7906 46.1688 43.1826 45.1479 43.1826 43.5062V2.84432C43.1826 1.56375 42.3273 0.481815 41.1621 0.134549ZM41.7183 7.41834H8.28174V2.84432C8.28174 2.16111 8.78857 1.58846 9.454 1.4949C9.6333 1.46971 7.97285 1.48641 40.3557 1.48162C41.1084 1.48162 41.7183 2.09441 41.7183 2.84422V7.41834Z" fill="#56576B"/>
<path d="M12.1968 2.21008C10.9617 2.21008 9.95679 3.21487 9.95679 4.45002C9.95679 5.68518 10.9617 6.69006 12.1968 6.69006C13.432 6.69006 14.4368 5.68518 14.4368 4.45002C14.4368 3.21487 13.4319 2.21008 12.1968 2.21008ZM12.1968 5.22571C11.7692 5.22571 11.4211 4.87776 11.4211 4.45002C11.4211 4.02229 11.7691 3.67444 12.1968 3.67444C12.6245 3.67444 12.9724 4.02239 12.9724 4.45002C12.9724 4.87766 12.6245 5.22571 12.1968 5.22571Z" fill="#56576B"/>
<path d="M18.0566 2.21008C16.8214 2.21008 15.8167 3.21487 15.8167 4.45002C15.8167 5.68518 16.8214 6.69006 18.0566 6.69006C19.2917 6.69006 20.2966 5.68518 20.2966 4.45002C20.2966 3.21487 19.2917 2.21008 18.0566 2.21008ZM18.0566 5.22571C17.629 5.22571 17.281 4.87776 17.281 4.45002C17.281 4.02229 17.629 3.67444 18.0566 3.67444C18.4842 3.67444 18.8323 4.02239 18.8323 4.45002C18.8323 4.87766 18.4843 5.22571 18.0566 5.22571Z" fill="#56576B"/>
<path d="M23.9164 2.21008C22.6813 2.21008 21.6764 3.21487 21.6764 4.45002C21.6764 5.68518 22.6813 6.69006 23.9164 6.69006C25.1516 6.69006 26.1564 5.68518 26.1564 4.45002C26.1564 3.21487 25.1516 2.21008 23.9164 2.21008ZM23.9164 5.22571C23.4888 5.22571 23.1407 4.87776 23.1407 4.45002C23.1407 4.02229 23.4887 3.67444 23.9164 3.67444C24.3441 3.67444 24.692 4.02239 24.692 4.45002C24.692 4.87766 24.3442 5.22571 23.9164 5.22571Z" fill="#56576B"/>
<path d="M40.815 42.4873C40.815 42.036 40.5816 41.6318 40.1907 41.4062L32.5944 37.0205C32.2035 36.7948 31.7368 36.7948 31.346 37.0205C30.9551 37.2461 30.7218 37.6502 30.7218 38.1016V46.8731C30.7218 47.3244 30.9551 47.7286 31.346 47.9542C31.7369 48.1799 32.2035 48.1799 32.5944 47.9542L34.4385 46.8895L35.8563 49.3451C36.0988 49.7649 36.5401 49.9999 36.9932 49.9999C37.2154 49.9999 37.4404 49.9434 37.6461 49.8246L39.2847 48.8785C39.9104 48.5172 40.1255 47.7143 39.7643 47.0886L38.3465 44.6331L40.1906 43.5683C40.5817 43.3428 40.815 42.9386 40.815 42.4873ZM37.5018 43.4301C37.1931 43.6083 36.9724 43.896 36.8801 44.2403C36.7878 44.5845 36.8352 44.9441 37.0134 45.2528L38.4192 47.6875L37.0474 48.4795L35.6416 46.0447C35.3948 45.6171 34.9454 45.3779 34.484 45.3779C34.2578 45.3779 34.0286 45.4354 33.8192 45.5564L32.1863 46.4991V38.4756L39.1348 42.4874L37.5018 43.4301Z" fill="#56576B"/>
</svg>
