<svg width="50" height="50" viewBox="0 0 50 50" fill="none" xmlns="http://www.w3.org/2000/svg">
<path d="M40.3581 22.0963H39.1902C38.9305 19.1837 38.1865 16.2931 36.8215 14.8351C33.3825 11.162 23.3365 10.5454 17.3117 12.4837C16.9267 12.6076 16.7149 13.0202 16.8388 13.4052C16.9627 13.7903 17.3753 14.0022 17.7603 13.8781C20.5553 12.979 24.3423 12.6563 27.8902 13.0148C31.5546 13.3851 34.4202 14.4135 35.7521 15.8362C37.1419 17.3204 38.0223 21.5907 37.8001 25.7692C37.7625 26.4762 37.6954 27.1473 37.6019 27.7734C37.5975 27.7955 37.5939 27.8181 37.5916 27.8408C37.267 29.9564 36.6363 31.5489 35.8083 32.2636C34.6643 33.251 32.7116 34.0136 30.3015 34.465C30.2489 34.4689 30.1972 34.4784 30.1472 34.4933C28.5862 34.7747 26.8395 34.927 25 34.927C23.1602 34.927 21.4132 34.7747 19.8521 34.4932C19.8081 34.4802 19.7628 34.4712 19.7168 34.4666C19.7166 34.4666 19.7164 34.4666 19.7162 34.4666C19.7108 34.4661 19.7055 34.4656 19.7001 34.4652C19.6997 34.4652 19.6993 34.4651 19.6989 34.4651C17.2886 34.0137 15.3357 33.2511 14.1916 32.2636C13.3636 31.5489 12.7329 29.9564 12.4083 27.8408C12.406 27.818 12.4024 27.7955 12.398 27.7734C12.3044 27.1473 12.2374 26.4762 12.1998 25.7692C11.9776 21.5907 12.858 17.3204 14.2478 15.8361C14.5206 15.5447 14.8637 15.2652 15.2673 15.0055C15.6074 14.7866 15.7059 14.3334 15.487 13.9933C15.2681 13.6531 14.8149 13.5547 14.4748 13.7736C13.9697 14.0985 13.5336 14.4556 13.1784 14.8349C11.8134 16.2928 11.0694 19.1835 10.8097 22.0961H10.6828V12.2995C11.7481 11.9831 12.5274 10.995 12.5274 9.82834C12.5274 8.40725 11.3713 7.2511 9.9502 7.2511C8.5291 7.2511 7.37305 8.40725 7.37305 9.82834C7.37305 10.9952 8.15244 11.9834 9.21807 12.2996V22.1361C8.16904 22.3352 7.37334 23.2593 7.37334 24.3657V26.3804C7.37334 27.6318 8.39102 28.6498 9.64189 28.6498H11.0597C11.3902 30.433 12.0241 32.3279 13.2346 33.3726C14.2583 34.2562 15.7644 34.9734 17.6067 35.4866C17.2574 35.7604 16.9701 36.0597 16.7468 36.3834C15.7927 37.7673 15.9977 39.9908 16.3375 41.6126C16.6507 43.1068 17.2029 44.6643 17.8926 45.9983C18.42 47.0185 19.2713 48.3724 20.3316 49.0283C21.3787 49.6761 23.1894 50 25 50C26.8106 50 28.6215 49.6761 29.6687 49.0282C30.91 48.2599 32.1758 46.2986 33.0547 43.7818C33.1881 43.3998 32.9866 42.9822 32.6047 42.8489C32.2227 42.7153 31.8051 42.9169 31.6718 43.2989C30.923 45.4432 29.8341 47.2031 28.8979 47.7826C27.2951 48.7743 22.7052 48.7743 21.1022 47.7826C19.8512 47.0087 18.3568 44.1061 17.7713 41.3122C17.3854 39.4713 17.4533 37.9396 17.9527 37.2153C18.1092 36.9885 18.3289 36.7716 18.6055 36.5689L20.0151 41.1422C20.6942 43.343 22.6976 44.8217 25.0001 44.8217C26.1242 44.8217 27.1956 44.4689 28.098 43.8017C29.0017 43.1348 29.6541 42.2152 29.9851 41.142L31.3947 36.5689C31.6714 36.7716 31.8911 36.9886 32.0475 37.2153C32.479 37.8408 32.5919 39.0772 32.3571 40.6071C32.2958 41.007 32.5701 41.3808 32.9699 41.4422C33.0076 41.448 33.045 41.4508 33.0819 41.4508C33.4374 41.4508 33.7494 41.1915 33.805 40.8294C34.0138 39.4689 34.0876 37.593 33.2532 36.3835C33.03 36.0599 32.7427 35.7607 32.3935 35.4869C34.2357 34.9737 35.7418 34.2565 36.7656 33.3729C37.9761 32.3281 38.61 30.4333 38.9405 28.6501H39.5185V33.4561L39.0371 33.9374C38.6692 33.7364 38.2475 33.622 37.7995 33.622C36.3719 33.622 35.2104 34.7835 35.2104 36.2112C35.2104 37.6388 36.3719 38.8003 37.7995 38.8003C39.2271 38.8003 40.3887 37.6388 40.3887 36.2112C40.3887 35.763 40.2742 35.341 40.0729 34.9731L40.6535 34.3925C40.8631 34.183 40.9832 33.8935 40.9832 33.5983V28.5625C41.9312 28.2904 42.6268 27.4153 42.6268 26.3807V24.366C42.6267 23.1144 41.609 22.0963 40.3581 22.0963ZM8.83789 9.82834C8.83789 9.21497 9.33691 8.71594 9.95029 8.71594C10.5637 8.71594 11.0627 9.21497 11.0627 9.82834C11.0627 10.4417 10.5637 10.9407 9.95029 10.9407C9.33691 10.9407 8.83789 10.4418 8.83789 9.82834ZM9.64189 27.1851C9.19873 27.1851 8.83818 26.8241 8.83818 26.3804V24.3657C8.83818 23.9221 9.19873 23.5611 9.64189 23.5611H10.7191C10.6916 24.3488 10.6985 25.1203 10.7372 25.847C10.7582 26.2423 10.7921 26.6967 10.8458 27.185H9.64189V27.1851ZM28.5852 40.7103C28.3472 41.482 27.8779 42.1434 27.2276 42.6233C26.5786 43.1031 25.8083 43.3568 25 43.3568C23.344 43.3568 21.9032 42.2932 21.4148 40.7104L19.9634 36.0015C21.5095 36.2568 23.2081 36.392 25 36.392C26.7919 36.392 28.4905 36.2568 30.0366 36.0015L28.5852 40.7103ZM37.7993 37.3354C37.1793 37.3354 36.675 36.831 36.675 36.2111C36.675 35.5911 37.1794 35.0867 37.7993 35.0867C38.4193 35.0867 38.9236 35.5911 38.9236 36.2111C38.9236 36.831 38.4193 37.3354 37.7993 37.3354ZM41.1618 26.3805C41.1618 26.8241 40.8013 27.1852 40.3581 27.1852H39.1543C39.208 26.6969 39.2419 26.2425 39.2629 25.8472C39.3016 25.1205 39.3085 24.3489 39.281 23.5613H40.3582C40.8014 23.5613 41.1619 23.9222 41.1619 24.3659V26.3805H41.1618Z" fill="#56576B"/>
<path d="M14.0183 25.2747C14.0183 28.5827 16.7096 31.2741 20.0176 31.2741H29.9825C33.2905 31.2741 35.9818 28.5828 35.9818 25.2747V24.4204C35.9818 21.1124 33.2905 18.421 29.9825 18.421H20.0176C16.7096 18.421 14.0183 21.1123 14.0183 24.4204V25.2747ZM15.4832 24.4204C15.4832 21.92 17.5173 19.8859 20.0176 19.8859H29.9825C32.4829 19.8859 34.5169 21.92 34.5169 24.4204V25.2747C34.5169 27.7751 32.4828 29.8093 29.9825 29.8093H20.0176C17.5172 29.8093 15.4832 27.7751 15.4832 25.2747V24.4204Z" fill="#56576B"/>
<path d="M29.8469 27.5989C31.364 27.5989 32.5982 26.3648 32.5982 24.8477C32.5982 23.3306 31.364 22.0963 29.8469 22.0963C28.3299 22.0963 27.0956 23.3306 27.0956 24.8477C27.0956 26.3648 28.33 27.5989 29.8469 27.5989ZM29.8469 23.5611C30.5563 23.5611 31.1335 24.1382 31.1335 24.8476C31.1335 25.557 30.5563 26.1341 29.8469 26.1341C29.1376 26.1341 28.5604 25.557 28.5604 24.8476C28.5604 24.1382 29.1376 23.5611 29.8469 23.5611Z" fill="#56576B"/>
<path d="M20.153 27.5989C21.6701 27.5989 22.9044 26.3648 22.9044 24.8477C22.9044 23.3306 21.6701 22.0963 20.153 22.0963C18.6359 22.0963 17.4017 23.3306 17.4017 24.8477C17.4017 26.3648 18.6359 27.5989 20.153 27.5989ZM20.153 23.5611C20.8624 23.5611 21.4395 24.1382 21.4395 24.8476C21.4395 25.557 20.8624 26.1341 20.153 26.1341C19.4436 26.1341 18.8665 25.557 18.8665 24.8476C18.8665 24.1382 19.4435 23.5611 20.153 23.5611Z" fill="#56576B"/>
<path d="M25 37.1772C23.5859 37.1772 22.4355 38.3276 22.4355 39.7417C22.4355 41.1558 23.5859 42.3062 25 42.3062C26.4141 42.3062 27.5645 41.1558 27.5645 39.7417C27.5645 38.3277 26.4141 37.1772 25 37.1772ZM25 40.8413C24.3937 40.8413 23.9004 40.348 23.9004 39.7417C23.9004 39.1353 24.3937 38.6421 25 38.6421C25.6063 38.6421 26.0996 39.1353 26.0996 39.7417C26.0996 40.348 25.6063 40.8413 25 40.8413Z" fill="#56576B"/>
<path d="M40.0124 0H21.3036C19.8619 0 18.6891 1.17295 18.6891 2.61455V8.05439C18.6891 9.49609 19.862 10.6689 21.3036 10.6689H34.5334L37.8091 14.1298C38.0275 14.3604 38.3232 14.4834 38.6264 14.4834C38.767 14.4834 38.9094 14.4569 39.0462 14.4023C39.4781 14.2304 39.7572 13.8188 39.7572 13.3539V10.6688H40.0123C41.4539 10.6688 42.6269 9.4959 42.6269 8.0543V2.61455C42.627 1.17295 41.454 0 40.0124 0ZM41.1621 8.05439C41.1621 8.68838 40.6463 9.2042 40.0124 9.2042H39.2229C38.7098 9.2042 38.2924 9.62158 38.2924 10.1347V12.5095L35.4394 9.49522C35.2645 9.31025 35.0181 9.2042 34.7634 9.2042H21.3036C20.6697 9.2042 20.1539 8.68838 20.1539 8.05439V2.61455C20.1539 1.98057 20.6697 1.46475 21.3037 1.46475H40.0125C40.6465 1.46475 41.1622 1.98057 41.1622 2.61445V8.05439H41.1621Z" fill="#56576B"/>
<path d="M24.8099 4.44092H24.3542C23.9498 4.44092 23.6218 4.76885 23.6218 5.17334C23.6218 5.57783 23.9498 5.90576 24.3542 5.90576H24.8099C25.2144 5.90576 25.5423 5.57783 25.5423 5.17334C25.5423 4.76885 25.2144 4.44092 24.8099 4.44092Z" fill="#56576B"/>
<path d="M28.8606 4.44092H28.4049C28.0004 4.44092 27.6725 4.76885 27.6725 5.17334C27.6725 5.57783 28.0004 5.90576 28.4049 5.90576H28.8606C29.2651 5.90576 29.593 5.57783 29.593 5.17334C29.593 4.76885 29.2651 4.44092 28.8606 4.44092Z" fill="#56576B"/>
<path d="M32.9111 4.44092H32.4554C32.051 4.44092 31.723 4.76885 31.723 5.17334C31.723 5.57783 32.051 5.90576 32.4554 5.90576H32.9111C33.3156 5.90576 33.6435 5.57783 33.6435 5.17334C33.6435 4.76885 33.3156 4.44092 32.9111 4.44092Z" fill="#56576B"/>
<path d="M36.9618 4.44092H36.5061C36.1016 4.44092 35.7737 4.76885 35.7737 5.17334C35.7737 5.57783 36.1016 5.90576 36.5061 5.90576H36.9618C37.3663 5.90576 37.6942 5.57783 37.6942 5.17334C37.6942 4.76885 37.3663 4.44092 36.9618 4.44092Z" fill="#56576B"/>
</svg>
